<?xml version="1.0" standalone="no"?>
<!DOCTYPE svg PUBLIC "-//W3C//DTD SVG 20010904//EN"
 "http://www.w3.org/TR/2001/REC-SVG-20010904/DTD/svg10.dtd">
<svg version="1.0" xmlns="http://www.w3.org/2000/svg"
 width="2479.000000pt" height="2479.000000pt" viewBox="0 0 2479.000000 2479.000000"
 preserveAspectRatio="xMidYMid meet">

<g transform="translate(0.000000,2479.000000) scale(0.100000,-0.100000)"
fill="#000000" stroke="none">
<path d="M5115 14664 c-391 -39 -719 -146 -1019 -332 -850 -526 -1256 -1530
-1010 -2503 183 -729 738 -1332 1449 -1579 260 -90 467 -124 750 -124 231 0
368 17 574 70 463 118 911 410 1203 781 l47 60 -417 181 c-229 99 -425 184
-434 187 -12 5 -42 -14 -100 -61 -45 -37 -105 -81 -133 -99 -134 -86 -332
-165 -490 -196 -107 -21 -408 -19 -515 4 -414 89 -763 354 -950 723 -347 681
-67 1513 622 1850 110 53 249 98 372 119 113 19 324 19 444 0 238 -39 478
-151 667 -311 56 -48 70 -55 88 -47 12 5 207 90 434 188 l411 179 -46 60 c-69
90 -285 303 -377 373 -200 151 -423 274 -630 349 -119 42 -302 88 -440 109
-97 15 -419 27 -500 19z"/>
<path d="M20060 14664 c-635 -47 -1085 -297 -1299 -722 -91 -181 -134 -385
-134 -642 0 -400 82 -640 296 -859 228 -235 486 -331 1212 -451 394 -65 542
-110 662 -200 99 -76 153 -189 153 -323 -1 -144 -40 -236 -141 -332 -108 -101
-248 -160 -461 -191 -142 -21 -475 -15 -613 11 -329 60 -618 180 -852 352 -40
29 -76 53 -80 53 -5 0 -94 -155 -200 -343 l-192 -342 27 -23 c59 -50 268 -183
370 -235 276 -141 569 -227 927 -274 165 -21 508 -23 680 -4 783 86 1252 466
1352 1095 20 127 13 473 -11 581 -40 172 -92 288 -185 412 -215 286 -490 412
-1221 563 -541 112 -662 157 -789 296 -76 83 -95 143 -96 289 0 112 2 124 29
178 85 175 308 283 636 307 376 29 764 -82 1148 -326 29 -19 56 -34 60 -34 4
0 86 158 182 351 170 341 174 351 155 365 -115 87 -403 234 -590 302 -130 47
-360 106 -500 127 -99 16 -418 27 -525 19z"/>
<path d="M11020 12395 l0 -2225 420 0 420 0 0 484 0 483 313 436 c171 240 316
435 321 433 5 -1 245 -415 535 -919 l525 -917 499 0 499 0 -25 43 c-401 690
-1477 2561 -1477 2569 0 5 292 416 648 912 356 495 651 907 656 914 6 9 -101
12 -521 12 l-528 0 -720 -1095 -720 -1094 -3 1094 -2 1095 -420 0 -420 0 0
-2225z"/>
<path d="M15010 12395 l0 -2225 1435 0 1435 0 0 365 0 365 -1015 0 -1015 0 0
565 0 565 1015 0 1015 0 0 365 0 365 -1015 0 -1015 0 0 565 0 565 1015 0 1015
0 0 365 0 365 -1435 0 -1435 0 0 -2225z"/>
<path d="M9055 13774 c-687 -300 -1675 -731 -2195 -957 -520 -227 -946 -416
-947 -422 -1 -9 4388 -1925 4410 -1925 4 0 7 182 7 404 l0 403 -262 115 c-145
63 -723 314 -1285 558 l-1023 445 33 16 c17 9 596 260 1285 559 l1252 544 0
403 c0 316 -3 403 -12 402 -7 0 -575 -246 -1263 -545z"/>
<path d="M9671 12905 c-87 -25 -172 -75 -238 -142 -249 -250 -180 -678 136
-836 92 -46 165 -61 271 -54 210 12 385 139 461 335 31 79 38 246 14 328 -48
165 -165 293 -325 355 -73 29 -241 36 -319 14z"/>
</g>
</svg>
